<?plantuml 1.2026.3beta3?><svg xmlns="http://www.w3.org/2000/svg" xmlns:xlink="http://www.w3.org/1999/xlink" contentStyleType="text/css" data-diagram-type="DESCRIPTION" height="712px" preserveAspectRatio="none" style="width:449px;height:712px;background:#FFFFFF;" version="1.1" viewBox="0 0 449 712" width="449px" zoomAndPan="magnify"><defs/><g><g class="header" data-source-line="1"><text fill="#888888" font-family="sans-serif" font-size="10" lengthAdjust="spacing" textLength="78.4912" x="364.3662" y="9.2822">Projeto GranBoi</text></g><g class="title" data-source-line="2"><text fill="#000000" font-family="sans-serif" font-size="14" font-weight="bold" lengthAdjust="spacing" textLength="422.8574" x="10" y="35.6357">Diagrama de Casos de Uso - Gest&#227;o de Gado de Corte</text></g><!--cluster Sistema GranBoi--><g class="cluster" data-qualified-name="Sistema GranBoi" data-source-line="11" id="ent0006"><path d="M151.8037,55.9375 L284.0127,55.9375 A3.75,3.75 0 0 1 286.5127,58.4375 L293.5127,78.2344 L432.1337,78.2344 A2.5,2.5 0 0 1 434.6337,80.7344 L434.6337,695.4375 A2.5,2.5 0 0 1 432.1337,697.9375 L151.8037,697.9375 A2.5,2.5 0 0 1 149.3037,695.4375 L149.3037,58.4375 A2.5,2.5 0 0 1 151.8037,55.9375" fill="none" style="stroke:#000000;stroke-width:1.5;"/><line style="stroke:#000000;stroke-width:1.5;" x1="149.3037" x2="293.5127" y1="78.2344" y2="78.2344"/><text fill="#000000" font-family="sans-serif" font-size="14" font-weight="bold" lengthAdjust="spacing" textLength="131.209" x="153.3037" y="70.9326">Sistema GranBoi</text></g><!--entity UC1--><g class="entity" data-qualified-name="Sistema GranBoi.UC1" data-source-line="12" id="ent0007"><ellipse cx="291.9782" cy="351.9411" fill="#F1F1F1" rx="60.1444" ry="14.5236" style="stroke:#181818;stroke-width:0.5;"/><text fill="#000000" font-family="sans-serif" font-size="14" lengthAdjust="spacing" textLength="80.8145" x="251.5709" y="356.5896">Fazer Login</text></g><!--entity UC2--><g class="entity" data-qualified-name="Sistema GranBoi.UC2" data-source-line="13" id="ent0008"><ellipse cx="291.977" cy="283.9342" fill="#F1F1F1" rx="81.2333" ry="18.6467" style="stroke:#181818;stroke-width:0.5;"/><text fill="#000000" font-family="sans-serif" font-size="14" lengthAdjust="spacing" textLength="133.5742" x="225.1899" y="288.5826">Gerenciar Usu&#225;rios</text></g><!--entity UC3--><g class="entity" data-qualified-name="Sistema GranBoi.UC3" data-source-line="14" id="ent0009"><ellipse cx="291.971" cy="585.937" fill="#F1F1F1" rx="103.9473" ry="23.1895" style="stroke:#181818;stroke-width:0.5;"/><text fill="#000000" font-family="sans-serif" font-size="14" lengthAdjust="spacing" textLength="184.7207" x="199.6107" y="590.5854">Gerenciar Animais (CRUD)</text></g><!--entity UC4--><g class="entity" data-qualified-name="Sistema GranBoi.UC4" data-source-line="15" id="ent0010"><ellipse cx="291.9723" cy="662.9332" fill="#F1F1F1" rx="80.7786" ry="18.5557" style="stroke:#181818;stroke-width:0.5;"/><text fill="#000000" font-family="sans-serif" font-size="14" lengthAdjust="spacing" textLength="132.5078" x="225.7184" y="667.5817">Registrar Pesagem</text></g><!--entity UC5--><g class="entity" data-qualified-name="Sistema GranBoi.UC5" data-source-line="16" id="ent0011"><ellipse cx="291.978" cy="424.9424" fill="#F1F1F1" rx="105.9243" ry="23.5849" style="stroke:#181818;stroke-width:0.5;"/><text fill="#000000" font-family="sans-serif" font-size="14" lengthAdjust="spacing" textLength="189.0342" x="197.4609" y="429.5908">Registrar Vacina&#231;&#227;o/Sa&#250;de</text></g><!--entity UC6--><g class="entity" data-qualified-name="Sistema GranBoi.UC6" data-source-line="17" id="ent0012"><ellipse cx="291.9755" cy="205.9419" fill="#F1F1F1" rx="110.7718" ry="24.5544" style="stroke:#181818;stroke-width:0.5;"/><text fill="#000000" font-family="sans-serif" font-size="14" lengthAdjust="spacing" textLength="199.5479" x="192.2016" y="210.5903">Visualizar Dashboard e GMD</text></g><!--entity UC7--><g class="entity" data-qualified-name="Sistema GranBoi.UC7" data-source-line="18" id="ent0013"><ellipse cx="291.9781" cy="505.9424" fill="#F1F1F1" rx="99.0744" ry="22.2149" style="stroke:#181818;stroke-width:0.5;"/><text fill="#000000" font-family="sans-serif" font-size="14" lengthAdjust="spacing" textLength="174.0156" x="204.9703" y="510.5908">Gerenciar Lotes e Pastos</text></g><!--entity UC8--><g class="entity" data-qualified-name="Sistema GranBoi.UC8" data-source-line="19" id="ent0014"><ellipse cx="291.969" cy="118.9406" fill="#F1F1F1" rx="126.6653" ry="27.7331" style="stroke:#181818;stroke-width:0.5;"/><text fill="#000000" font-family="sans-serif" font-size="14" lengthAdjust="spacing" textLength="233.5225" x="175.2078" y="123.589">Gerar Relat&#243;rios de Desempenho</text></g><!--entity G--><g class="entity" data-qualified-name="G" data-source-line="6" id="ent0002"><ellipse cx="55.7669" cy="185.2875" fill="#F1F1F1" rx="8" ry="8" style="stroke:#181818;stroke-width:0.5;"/><path d="M55.7669,193.2875 L55.7669,220.2875 M42.7669,201.2875 L68.7669,201.2875 M55.7669,220.2875 L42.7669,235.2875 M55.7669,220.2875 L68.7669,235.2875" fill="none" style="stroke:#181818;stroke-width:0.5;"/><text fill="#000000" font-family="sans-serif" font-size="14" lengthAdjust="spacing" textLength="46.5664" x="32.4837" y="249.7826">Gestor</text></g><!--entity A--><g class="entity" data-qualified-name="A" data-source-line="7" id="ent0003"><ellipse cx="55.7637" cy="313.2875" fill="#F1F1F1" rx="8" ry="8" style="stroke:#181818;stroke-width:0.5;"/><path d="M55.7637,321.2875 L55.7637,348.2875 M42.7637,329.2875 L68.7637,329.2875 M55.7637,348.2875 L42.7637,363.2875 M55.7637,348.2875 L68.7637,363.2875" fill="none" style="stroke:#181818;stroke-width:0.5;"/><text fill="#000000" font-family="sans-serif" font-size="14" lengthAdjust="spacing" textLength="99.0801" x="6.2237" y="377.7826">Administrador</text></g><!--entity V--><g class="entity" data-qualified-name="V" data-source-line="8" id="ent0004"><ellipse cx="55.7645" cy="424.2875" fill="#F1F1F1" rx="8" ry="8" style="stroke:#181818;stroke-width:0.5;"/><path d="M55.7645,432.2875 L55.7645,459.2875 M42.7645,440.2875 L68.7645,440.2875 M55.7645,459.2875 L42.7645,474.2875 M55.7645,459.2875 L68.7645,474.2875" fill="none" style="stroke:#181818;stroke-width:0.5;"/><text fill="#000000" font-family="sans-serif" font-size="14" lengthAdjust="spacing" textLength="77.6016" x="16.9637" y="488.7826">Veterin&#225;rio</text></g><!--entity O--><g class="entity" data-qualified-name="O" data-source-line="9" id="ent0005"><ellipse cx="55.765" cy="541.2875" fill="#F1F1F1" rx="8" ry="8" style="stroke:#181818;stroke-width:0.5;"/><path d="M55.765,549.2875 L55.765,576.2875 M42.765,557.2875 L68.765,557.2875 M55.765,576.2875 L42.765,591.2875 M55.765,576.2875 L68.765,591.2875" fill="none" style="stroke:#181818;stroke-width:0.5;"/><text fill="#000000" font-family="sans-serif" font-size="14" lengthAdjust="spacing" textLength="66.0625" x="22.7337" y="605.7826">Operador</text></g><!--link G to UC1--><g class="link" data-entity-1="ent0002" data-entity-2="ent0007" data-link-type="dependency" data-source-line="23" id="lnk15"><path d="M79.4037,247.6975 C98.8337,274.8775 126.0537,310.5475 141.3037,319.9375 C168.6837,336.7875 197.6646,344.078 226.8946,347.908" fill="none" id="G-to-UC1" style="stroke:#181818;stroke-width:1;"/><polygon fill="#181818" points="232.8437,348.6875,224.4397,343.5521,227.8861,348.0379,223.4003,351.4843,232.8437,348.6875" style="stroke:#181818;stroke-width:1;"/></g><!--link G to UC6--><g class="link" data-entity-1="ent0002" data-entity-2="ent0012" data-link-type="dependency" data-source-line="24" id="lnk16"><path d="M79.2237,214.0775 C103.3737,213.1475 137.5881,211.827 176.5181,210.337" fill="none" id="G-to-UC6" style="stroke:#181818;stroke-width:1;"/><polygon fill="#181818" points="182.5137,210.1075,173.3673,206.4546,177.5174,210.2987,173.6733,214.4488,182.5137,210.1075" style="stroke:#181818;stroke-width:1;"/></g><!--link G to UC8--><g class="link" data-entity-1="ent0002" data-entity-2="ent0014" data-link-type="dependency" data-source-line="25" id="lnk17"><path d="M79.2437,199.2375 C95.8037,188.2075 119.2137,173.7375 141.3037,163.9375 C162.2637,154.6375 179.9493,148.3102 201.9293,141.6802" fill="none" id="G-to-UC8" style="stroke:#181818;stroke-width:1;"/><polygon fill="#181818" points="207.6737,139.9475,197.902,138.717,202.8867,141.3914,200.2123,146.3761,207.6737,139.9475" style="stroke:#181818;stroke-width:1;"/></g><!--link G to UC2--><g class="link" data-entity-1="ent0002" data-entity-2="ent0008" data-link-type="dependency" data-source-line="26" id="lnk18"><path d="M79.4237,224.7575 C96.2837,231.8175 119.9537,241.2375 141.3037,247.9375 C170.3737,257.0575 197.3814,263.8743 224.8914,270.0943" fill="none" id="G-to-UC2" style="stroke:#181818;stroke-width:1;"/><polygon fill="#181818" points="230.7437,271.4175,222.8474,265.5312,225.8668,270.3148,221.0832,273.3342,230.7437,271.4175" style="stroke:#181818;stroke-width:1;"/></g><!--link A to UC1--><g class="link" data-entity-1="ent0003" data-entity-2="ent0007" data-link-type="dependency" data-source-line="29" id="lnk19"><path d="M105.5737,344.8175 C142.4437,346.2275 187.1981,347.9474 226.2781,349.4474" fill="none" id="A-to-UC1" style="stroke:#181818;stroke-width:1;"/><polygon fill="#181818" points="232.2737,349.6775,223.4338,345.3353,227.2774,349.4857,223.1269,353.3294,232.2737,349.6775" style="stroke:#181818;stroke-width:1;"/></g><!--link A to UC2--><g class="link" data-entity-1="ent0003" data-entity-2="ent0008" data-link-type="dependency" data-source-line="30" id="lnk20"><path d="M105.4237,329.4375 C117.1537,326.2475 129.6637,322.9175 141.3037,319.9375 C171.7237,312.1475 199.9051,305.2998 227.8251,298.6898" fill="none" id="A-to-UC2" style="stroke:#181818;stroke-width:1;"/><polygon fill="#181818" points="233.6637,297.3075,223.9843,295.4885,228.7982,298.4594,225.8273,303.2733,233.6637,297.3075" style="stroke:#181818;stroke-width:1;"/></g><!--link A to UC7--><g class="link" data-entity-1="ent0003" data-entity-2="ent0013" data-link-type="dependency" data-source-line="31" id="lnk21"><path d="M92.6837,381.3675 C97.1337,386.7775 101.4637,392.3875 105.3037,397.9375 C124.7537,426.0675 114.5537,444.6375 141.3037,465.9375 C159.2937,480.2675 176.1668,487.9297 198.3768,493.8597" fill="none" id="A-to-UC7" style="stroke:#181818;stroke-width:1;"/><polygon fill="#181818" points="204.1737,495.4075,196.5102,489.2212,199.3429,494.1177,194.4465,496.9505,204.1737,495.4075" style="stroke:#181818;stroke-width:1;"/></g><!--link V to UC1--><g class="link" data-entity-1="ent0004" data-entity-2="ent0007" data-link-type="dependency" data-source-line="34" id="lnk22"><path d="M94.8337,415.7975 C108.5037,403.9975 124.6737,391.9975 141.3037,383.9375 C170.7137,369.6875 200.4812,362.6447 229.6412,358.2347" fill="none" id="V-to-UC1" style="stroke:#181818;stroke-width:1;"/><polygon fill="#181818" points="235.5737,357.3375,226.0768,354.7283,230.6299,358.0852,227.273,362.6383,235.5737,357.3375" style="stroke:#181818;stroke-width:1;"/></g><!--link V to UC5--><g class="link" data-entity-1="ent0004" data-entity-2="ent0011" data-link-type="dependency" data-source-line="35" id="lnk23"><path d="M94.9137,449.2175 C122.9737,445.7375 156.4092,441.5946 192.5192,437.1246" fill="none" id="V-to-UC5" style="stroke:#181818;stroke-width:1;"/><polygon fill="#181818" points="198.4737,436.3875,189.0505,433.5235,193.5116,437.0018,190.0333,441.4629,198.4737,436.3875" style="stroke:#181818;stroke-width:1;"/></g><!--link V to UC3--><g class="link" data-entity-1="ent0004" data-entity-2="ent0009" data-link-type="dependency" data-source-line="36" id="lnk24"><path d="M88.4337,492.5675 C106.9637,514.2975 129.0537,538.5275 141.3037,545.9375 C161.0937,557.9175 178.6754,564.8151 201.0054,570.7551" fill="none" id="V-to-UC3" style="stroke:#181818;stroke-width:1;"/><polygon fill="#181818" points="206.8037,572.2975,199.1345,566.1183,201.9717,571.0121,197.0779,573.8494,206.8037,572.2975" style="stroke:#181818;stroke-width:1;"/></g><!--link O to UC1--><g class="link" data-entity-1="ent0005" data-entity-2="ent0007" data-link-type="dependency" data-source-line="39" id="lnk25"><path d="M89.2837,534.7975 C95.2137,526.9775 100.9037,518.4775 105.3037,509.9375 C131.9537,458.1475 98.7537,423.7075 141.3037,383.9375 C165.3737,361.4375 195.2633,353.7123 225.8533,351.2323" fill="none" id="O-to-UC1" style="stroke:#181818;stroke-width:1;"/><polygon fill="#181818" points="231.8337,350.7475,222.5399,347.4878,226.8501,351.1515,223.1864,355.4617,231.8337,350.7475" style="stroke:#181818;stroke-width:1;"/></g><!--link O to UC3--><g class="link" data-entity-1="ent0005" data-entity-2="ent0009" data-link-type="dependency" data-source-line="40" id="lnk26"><path d="M88.8337,572.9875 C115.3937,574.6975 148.626,576.824 185.476,579.184" fill="none" id="O-to-UC3" style="stroke:#181818;stroke-width:1;"/><polygon fill="#181818" points="191.4637,579.5675,182.7378,575.0005,186.4739,579.2479,182.2265,582.9841,191.4637,579.5675" style="stroke:#181818;stroke-width:1;"/></g><!--link O to UC4--><g class="link" data-entity-1="ent0005" data-entity-2="ent0010" data-link-type="dependency" data-source-line="41" id="lnk27"><path d="M88.9537,596.1175 C104.1237,606.9475 122.9037,618.9275 141.3037,626.9375 C167.6437,638.4075 192.3837,645.3452 219.0337,650.9852" fill="none" id="O-to-UC4" style="stroke:#181818;stroke-width:1;"/><polygon fill="#181818" points="224.9037,652.2275,216.9269,646.4508,220.0121,651.1923,215.2705,654.2774,224.9037,652.2275" style="stroke:#181818;stroke-width:1;"/></g><!--link O to UC7--><g class="link" data-entity-1="ent0005" data-entity-2="ent0013" data-link-type="dependency" data-source-line="42" id="lnk28"><path d="M89.1837,560.6075 C104.8737,555.6975 124.0237,549.8475 141.3037,544.9375 C168.4237,537.2375 192.6632,530.7937 218.6832,524.0937" fill="none" id="O-to-UC7" style="stroke:#181818;stroke-width:1;"/><polygon fill="#181818" points="224.4937,522.5975,214.7806,520.9681,219.6517,523.8443,216.7755,528.7154,224.4937,522.5975" style="stroke:#181818;stroke-width:1;"/></g><?plantuml-src TPA_JiCm4CPtFyMf2p1KYFwXdP128x8KjIfgzYCvqeF6hcntAU9X40CFmCQQ5yD9OrDGE-MJx_TzkVDvHPYJXhbMpsGL91hbhM9XsQu9OiP2OucG4qpGA5EBfL7GXOIChJvKVP1WtdmdIbiIOarF5boKvc9b8MTDcMKbXS3CAWsTsgbq1z10ui-Yl6J9nceNjIz5lfII9SsoUjUicahgAxCD_V8p8JQOlM11q7bmIUIwReVfmAi0s1hAqBZg7UxSm5DLi6oSoydLOJaXJJ9Zr6xGRVDNqsAzurWakKGsS3vPBEEBbkqViWigcjdSDPDn7POjD3WEfPYnnEhJNU_b0rRVERNyy91FsMnnpJjdYD6i7XNg7DmoxkEMlZxUxbHPCWwSerk37stqZtNSWjPegwzw_dgvCHagDoHNghMCnPiGPmsMkVLYITBMg8BzWaK2tUvDSxjUNGSr3gft8kJFYn1Ho8g2pwlHYOJ3XoFI4E3LCAZ-YG3_liGic6V1ujKWgD4F?></g></svg>